name C:\Users\Nicos\Documents\OpenSimProjects\SprintingProject\Study1\PredictiveResults\IC_pred_Sprinting_optimum_28-October-2023__13-58-45___IKTD_Minus_6_p02_maxVel_01.mot
datacolumns 38
datarows 11
range 0.16051680 0.17157447
endheader
                time	/jointset/ground_pelvis/pelvis_tilt/value	/jointset/ground_pelvis/pelvis_list/value	/jointset/ground_pelvis/pelvis_rotation/value	/jointset/ground_pelvis/pelvis_tx/value	/jointset/ground_pelvis/pelvis_ty/value	/jointset/ground_pelvis/pelvis_tz/value	/jointset/hip_r/hip_flexion_r/value	/jointset/hip_r/hip_adduction_r/value	/jointset/hip_r/hip_rotation_r/value	/jointset/knee_r/knee_angle_r/value	/jointset/ankle_r/ankle_angle_r/value	/jointset/subtalar_r/subtalar_angle_r/value	/jointset/mtp_r/mtp_angle_r/value	/jointset/hip_l/hip_flexion_l/value	/jointset/hip_l/hip_adduction_l/value	/jointset/hip_l/hip_rotation_l/value	/jointset/knee_l/knee_angle_l/value	/jointset/ankle_l/ankle_angle_l/value	/jointset/subtalar_l/subtalar_angle_l/value	/jointset/mtp_l/mtp_angle_l/value	/jointset/back/lumbar_extension/value	/jointset/back/lumbar_bending/value	/jointset/back/lumbar_rotation/value	/jointset/acromial_r/arm_flex_r/value	/jointset/acromial_r/arm_add_r/value	/jointset/acromial_r/arm_rot_r/value	/jointset/elbow_r/elbow_flex_r/value	/jointset/radioulnar_r/pro_sup_r/value	/jointset/radius_hand_r/wrist_flex_r/value	/jointset/radius_hand_r/wrist_dev_r/value	/jointset/acromial_l/arm_flex_l/value	/jointset/acromial_l/arm_add_l/value	/jointset/acromial_l/arm_rot_l/value	/jointset/elbow_l/elbow_flex_l/value	/jointset/radioulnar_l/pro_sup_l/value	/jointset/radius_hand_l/wrist_flex_l/value	/jointset/radius_hand_l/wrist_dev_l/value	
          0.16051680	         -8.95115969	          6.06748415	        -13.38670041	          1.24968940	          0.96543781	          0.30705295	          0.44944935	        -14.86136821	          8.39428024	        -57.37952488	        -30.06889146	        -13.83597390	         -7.92257945	         85.94696257	        -10.93634106	         -0.96910331	        -85.20063350	        -15.28162407	        -23.46456353	         15.66484453	        -10.14738051	         -4.29482945	         10.50305469	         83.15795477	          0.10689238	         -0.00091384	         96.56834734	         70.31981900	         -7.41880307	          7.74883583	        -74.28325955	          0.95830437	         -0.00001689	         76.22130327	         51.18687047	        -12.76301588	          7.73753269	
          0.16116502	         -8.90675036	          6.06102574	        -13.34959943	          1.25702549	          0.96578642	          0.30716203	          0.42363370	        -14.83705845	          8.46486949	        -57.76150310	        -30.11252967	        -13.75270421	         -7.81916853	         85.76809558	        -10.96579775	         -1.07007389	        -84.40749317	        -15.53321837	        -23.50860442	         15.66510218	        -10.26429868	         -4.36820498	         10.49617458	         83.20168044	         -0.00298510	         -0.00137743	         96.17462262	         70.08038475	         -7.31772303	          7.72885388	        -74.18259757	          0.94891693	         -0.00019956	         75.71456413	         51.15057840	        -12.87685095	          7.71762099	
          0.16321312	         -8.73116137	          6.03040198	        -13.23955105	          1.28020338	          0.96695322	          0.30752254	          0.31880114	        -14.75059770	          8.68428746	        -58.96887120	        -30.20706581	        -13.56047059	         -7.52874836	         85.12516226	        -11.05380867	         -1.39511348	        -81.90545672	        -16.28528775	        -23.62409341	         15.66566921	        -10.67726943	         -4.60082121	         10.48475641	         83.29239293	         -0.39354948	         -0.00238621	         95.00406927	         69.31438867	         -6.99834093	          7.66570453	        -73.83280934	          0.89275318	         -0.00784678	         74.18693224	         51.05603477	        -13.23653256	          7.65459124	
          0.16469747	         -8.57063724	          5.99920342	        -13.16639329	          1.29700425	          0.96785935	          0.30779599	          0.22102966	        -14.68069873	          8.83791999	        -59.84312585	        -30.24088707	        -13.49408427	         -7.36051248	         84.58804590	        -11.11112507	         -1.63486905	        -80.10170208	        -16.78748743	        -23.68660018	         15.66587735	        -11.01692481	         -4.77023295	         10.48622505	         83.31227566	         -0.71781312	         -0.00197822	         94.22546118	         68.75019413	         -6.76688246	          7.61995486	        -73.55104706	          0.82732834	         -0.02300785	         73.14953537	         51.00712144	        -13.49719790	          7.60885570	
          0.16469747	         -8.57063724	          5.99920342	        -13.16639329	          1.29700425	          0.96785935	          0.30779599	          0.22102966	        -14.68069873	          8.83791999	        -59.84312585	        -30.24088707	        -13.49408427	         -7.36051248	         84.58804590	        -11.11112507	         -1.63486905	        -80.10170208	        -16.78748743	        -23.68660018	         15.66587735	        -11.01692481	         -4.77023295	         10.48622505	         83.31227566	         -0.71781312	         -0.00197822	         94.22546118	         68.75019413	         -6.76688246	          7.61995486	        -73.55104706	          0.82732834	         -0.02300785	         73.14953537	         51.00712144	        -13.49719790	          7.60885570	
          0.16534569	         -8.49184207	          5.98339557	        -13.13610667	          1.30434293	          0.96827060	          0.30791784	          0.17269171	        -14.64876488	          8.90312598	        -60.22441273	        -30.24804456	        -13.48499271	         -7.30001568	         84.33545151	        -11.13399367	         -1.74026409	        -79.31800342	        -16.99504494	        -23.70876020	         15.66593092	        -11.17561967	         -4.84445543	         10.48939368	         83.30866205	         -0.87028217	         -0.00121121	         93.90382956	         68.50141983	         -6.66580290	          7.59997294	        -73.42101586	          0.79230215	         -0.03277981	         72.71489133	         50.99101183	        -13.61103263	          7.58887418	
          0.16739379	         -8.20868510	          5.92624324	        -13.04669478	          1.32754058	          0.96963009	          0.30830933	         -0.00148132	        -14.54497918	          9.10072476	        -61.42629987	        -30.24540750	        -13.52431443	         -7.16842331	         83.46839543	        -11.19552330	         -2.07480460	        -76.86345554	        -17.60268042	        -23.76129379	         15.66594024	        -11.71691625	         -5.08103331	         10.50951900	         83.24676764	         -1.39541862	         -0.00000573	         92.96106159	         67.70599843	         -6.34642056	          7.53682591	        -72.98450881	          0.65774913	         -0.08411758	         71.41505081	         50.96081437	        -13.97071177	          7.52572500	
          0.16887814	         -7.97229096	          5.87897745	        -12.98821896	          1.34436456	          0.97066980	          0.30859774	         -0.14568143	        -14.46851354	          9.23717680	        -62.29480225	        -30.21944266	        -13.59505696	         -7.13163899	         82.77825501	        -11.22934177	         -2.31722926	        -75.10963959	        -17.99802563	        -23.78690948	         15.66582755	        -12.14498320	         -5.25510355	         10.53459369	         83.15267104	         -1.81721261	         -0.00351499	         92.34754101	         67.12040661	         -6.11496407	          7.49107367	        -72.64557395	          0.53909275	         -0.14778617	         70.54274465	         50.95828304	        -14.23137847	          7.47997546	
          0.16887814	         -7.97229096	          5.87897745	        -12.98821896	          1.34436456	          0.97066980	          0.30859774	         -0.14568143	        -14.46851354	          9.23717680	        -62.29480225	        -30.21944266	        -13.59505696	         -7.13163899	         82.77825501	        -11.22934177	         -2.31722926	        -75.10963959	        -17.99802563	        -23.78690948	         15.66582755	        -12.14498320	         -5.25510355	         10.53459369	         83.15267104	         -1.81721261	         -0.00351499	         92.34754101	         67.12040661	         -6.11496407	          7.49107367	        -72.64557395	          0.53909275	         -0.14778617	         70.54274465	         50.95828304	        -14.23137847	          7.47997546	
          0.16952636	         -7.86160416	          5.85749478	        -12.96441570	          1.35171503	          0.97113683	          0.30872448	         -0.21214791	        -14.43559073	          9.29527573	        -62.67359610	        -30.20163294	        -13.63143037	         -7.13121006	         82.46195348	        -11.24100504	         -2.42300010	        -74.35139006	        -18.15919373	        -23.79605573	         15.66575663	        -12.34020309	         -5.33236383	         10.54845024	         83.09811231	         -2.01227320	         -0.00694587	         92.09800366	         66.86238974	         -6.01388410	          7.47109762	        -72.49211369	          0.48192728	         -0.18398478	         70.18019580	         50.96219028	        -14.34521327	          7.45999419	
          0.17157447	         -7.48073473	          5.78353480	        -12.89669608	          1.37495440	          0.97266610	          0.30912743	         -0.43764948	        -14.33096871	          9.47529056	        -63.86794338	        -30.11705049	        -13.73783936	         -7.18992909	         81.40447307	        -11.26614971	         -2.75254400	        -71.99138504	        -18.62358297	        -23.82117128	         15.66554436	        -12.99209987	         -5.57864416	         10.60533083	         82.87186723	         -2.67198133	         -0.02644830	         91.38302462	         66.03705151	         -5.69450509	          7.40793762	        -71.98678889	          0.28300136	         -0.34264018	         69.10814667	         50.99429021	        -14.70489228	          7.39684414	
